<svg id="svgcontent" width="300mm" height="210mm" viewBox="0 0 3000 2100" xmlns="http://www.w3.org/2000/svg" xmlns:svg="http://www.w3.org/2000/svg" xmlns:xlink="http://www.w3.org/1999/xlink" data-top="-58" data-left="-388" data-zoom="0.263" data-en_af="undefined" data-en_diode="undefined" data-rotary_mode="null" data-engrave_dpi="medium" style="will-change: scroll-position, contents, transform;">
 <defs>
  <symbol data-image-symbol="svg_1_image" data-bbox="{&quot;x&quot;:0,&quot;y&quot;:-0.00098,&quot;width&quot;:1218.44824,&quot;height&quot;:712.80096}" id="svg_1" overflow="visible">
   <path id="svg_2" d="m817.2023,682.8l-100,0" vector-effect="non-scaling-stroke" stroke-width="1px" stroke="#FF0000" fill="none"/>
   <path id="svg_3" d="m517.2023,682.8l-100,0" vector-effect="non-scaling-stroke" stroke-width="1px" stroke="#FF0000" fill="none"/>
   <path id="svg_4" d="m864.2023,712.8l-44,0" vector-effect="non-scaling-stroke" stroke-width="1px" stroke="#FF0000" fill="none"/>
   <path id="svg_5" d="m817.2023,709.8c0,0.7956 0.3161,1.5587 0.8787,2.1213c0.5626,0.5626 1.3256,0.8787 2.1213,0.8787" vector-effect="non-scaling-stroke" stroke-width="1px" stroke="#FF0000" fill="none"/>
   <path id="svg_6" d="m714.2023,712.8l-194,0" vector-effect="non-scaling-stroke" stroke-width="1px" stroke="#FF0000" fill="none"/>
   <path id="svg_7" d="m517.2023,709.8c0,0.7956 0.3161,1.5587 0.8787,2.1213c0.5626,0.5626 1.3256,0.8787 2.1213,0.8787" vector-effect="non-scaling-stroke" stroke-width="1px" stroke="#FF0000" fill="none"/>
   <path id="svg_8" d="m414.2023,712.8l-44,0" vector-effect="non-scaling-stroke" stroke-width="1px" stroke="#FF0000" fill="none"/>
   <path id="svg_9" d="m367.2023,709.8c0,0.7956 0.3161,1.5587 0.8787,2.1213c0.5626,0.5626 1.3256,0.8787 2.1213,0.8787" vector-effect="non-scaling-stroke" stroke-width="1px" stroke="#FF0000" fill="none"/>
   <path id="svg_10" d="m673.4939,590.3c-8.6195,-14.9295 -22.8167,-25.8234 -39.4684,-30.2852c-16.6516,-4.4618 -34.3937,-2.126 -49.3232,6.4935c-9.8813,5.705 -18.0867,13.9104 -23.7917,23.7917" vector-effect="non-scaling-stroke" stroke-width="1px" stroke="#FF0000" fill="none"/>
   <path id="svg_11" d="m699.4747,575.3c-12.5978,-21.82 -33.3476,-37.7419 -57.6846,-44.263c-24.3371,-6.5211 -50.2678,-3.1072 -72.0878,9.4906c-14.4418,8.338 -26.4344,20.3306 -34.7724,34.7724" vector-effect="non-scaling-stroke" stroke-width="1px" stroke="#FF0000" fill="none"/>
   <path id="svg_12" d="m730.9333,605.7629c-4.5185,-30.1633 -20.8343,-57.2962 -45.3581,-75.4299c-24.5237,-18.1336 -55.2466,-25.7825 -85.41,-21.264c-30.1633,4.5185 -57.2962,20.8343 -75.4299,45.358c-11.1777,15.1166 -18.4788,32.7431 -21.264,51.3359" vector-effect="non-scaling-stroke" stroke-width="1px" stroke="#FF0000" fill="none"/>
   <path id="svg_13" d="m534.9299,575.3c-1.9892,3.4452 -2.5282,7.5396 -1.4985,11.3823c1.0296,3.8427 3.5436,7.1189 6.9889,9.1081c3.4452,1.9891 7.5395,2.5281 11.3822,1.4985c3.8427,-1.0297 7.119,-3.5437 9.1081,-6.9889" vector-effect="non-scaling-stroke" stroke-width="1px" stroke="#FF0000" fill="none"/>
   <path id="svg_14" d="m673.4939,590.3c1.9892,3.4452 5.2654,5.9592 9.1081,6.9889c3.8427,1.0296 7.9371,0.4906 11.3823,-1.4985c3.4453,-1.9892 5.9593,-5.2654 6.9889,-9.1081c1.0297,-3.8427 0.4906,-7.9371 -1.4985,-11.3823" vector-effect="non-scaling-stroke" stroke-width="1px" stroke="#FF0000" fill="none"/>
   <path id="svg_15" d="m867.2023,672.8l0,37" vector-effect="non-scaling-stroke" stroke-width="1px" stroke="#FF0000" fill="none"/>
   <path id="svg_16" d="m864.2023,712.8c0.7956,0 1.5587,-0.3161 2.1213,-0.8787c0.5626,-0.5626 0.8787,-1.3257 0.8787,-2.1213" vector-effect="non-scaling-stroke" stroke-width="1px" stroke="#FF0000" fill="none"/>
   <path id="svg_17" d="m867.2023,672.8c0,-13.2608 -5.2679,-25.9785 -14.6447,-35.3554c-9.3768,-9.3768 -22.0945,-14.6446 -35.3553,-14.6446" vector-effect="non-scaling-stroke" stroke-width="1px" stroke="#FF0000" fill="none"/>
   <path id="svg_18" d="m483.692,622.8l-66.4897,0" vector-effect="non-scaling-stroke" stroke-width="1px" stroke="#FF0000" fill="none"/>
   <path id="svg_19" d="m750.7126,622.8l66.4897,0" vector-effect="non-scaling-stroke" stroke-width="1px" stroke="#FF0000" fill="none"/>
   <path id="svg_20" d="m417.2023,622.8c-13.2608,0 -25.9785,5.2678 -35.3554,14.6446c-9.3768,9.3769 -14.6446,22.0946 -14.6446,35.3554l0,37" vector-effect="non-scaling-stroke" stroke-width="1px" stroke="#FF0000" fill="none"/>
   <path id="svg_21" d="m717.2023,682.8l0,27" vector-effect="non-scaling-stroke" stroke-width="1px" stroke="#FF0000" fill="none"/>
   <path id="svg_22" d="m714.2023,712.8c0.7956,0 1.5587,-0.3161 2.1213,-0.8787c0.5626,-0.5626 0.8787,-1.3257 0.8787,-2.1213" vector-effect="non-scaling-stroke" stroke-width="1px" stroke="#FF0000" fill="none"/>
   <path id="svg_23" d="m817.2023,682.8l0,27" vector-effect="non-scaling-stroke" stroke-width="1px" stroke="#FF0000" fill="none"/>
   <path id="svg_24" d="m517.2023,682.8l0,27" vector-effect="non-scaling-stroke" stroke-width="1px" stroke="#FF0000" fill="none"/>
   <path id="svg_25" d="m417.2023,682.8l0,27" vector-effect="non-scaling-stroke" stroke-width="1px" stroke="#FF0000" fill="none"/>
   <path id="svg_26" d="m414.2023,712.8c0.7956,0 1.5587,-0.3161 2.1213,-0.8787c0.5626,-0.5626 0.8787,-1.3257 0.8787,-2.1213" vector-effect="non-scaling-stroke" stroke-width="1px" stroke="#FF0000" fill="none"/>
   <path id="svg_27" d="m718.4482,255.81l48.5,0" vector-effect="non-scaling-stroke" stroke-width="1px" stroke="#FF0000" fill="none"/>
   <path id="svg_28" d="m869.9482,255.81l197,0" vector-effect="non-scaling-stroke" stroke-width="1px" stroke="#FF0000" fill="none"/>
   <path id="svg_29" d="m1169.9482,255.81l48.5,0" vector-effect="non-scaling-stroke" stroke-width="1px" stroke="#FF0000" fill="none"/>
   <path id="svg_30" d="m769.9482,225.81l97,0" vector-effect="non-scaling-stroke" stroke-width="1px" stroke="#FF0000" fill="none"/>
   <path id="svg_31" d="m769.9482,225.81c-0.7956,0 -1.5587,0.3161 -2.1213,0.8787c-0.5626,0.5626 -0.8787,1.3256 -0.8787,2.1213" vector-effect="non-scaling-stroke" stroke-width="1px" stroke="#FF0000" fill="none"/>
   <path id="svg_32" d="m1069.9482,225.81l97,0" vector-effect="non-scaling-stroke" stroke-width="1px" stroke="#FF0000" fill="none"/>
   <path id="svg_33" d="m1069.9482,225.81c-0.7956,0 -1.5587,0.3161 -2.1213,0.8787c-0.5626,0.5626 -0.8787,1.3256 -0.8787,2.1213" vector-effect="non-scaling-stroke" stroke-width="1px" stroke="#FF0000" fill="none"/>
   <path id="svg_34" d="m1218.4482,255.81l0,280" vector-effect="non-scaling-stroke" stroke-width="1px" stroke="#FF0000" fill="none"/>
   <path id="svg_35" d="m718.4482,255.81l0,280" vector-effect="non-scaling-stroke" stroke-width="1px" stroke="#FF0000" fill="none"/>
   <path id="svg_36" d="m766.9482,228.81l0,27" vector-effect="non-scaling-stroke" stroke-width="1px" stroke="#FF0000" fill="none"/>
   <path id="svg_37" d="m869.9482,228.81l0,27" vector-effect="non-scaling-stroke" stroke-width="1px" stroke="#FF0000" fill="none"/>
   <path id="svg_38" d="m869.9482,228.81c0,-0.7957 -0.316,-1.5587 -0.8786,-2.1213c-0.5626,-0.5626 -1.3257,-0.8787 -2.1214,-0.8787" vector-effect="non-scaling-stroke" stroke-width="1px" stroke="#FF0000" fill="none"/>
   <path id="svg_39" d="m1066.9482,228.81l0,27" vector-effect="non-scaling-stroke" stroke-width="1px" stroke="#FF0000" fill="none"/>
   <path id="svg_40" d="m1169.9482,228.81l0,27" vector-effect="non-scaling-stroke" stroke-width="1px" stroke="#FF0000" fill="none"/>
   <path id="svg_41" d="m1169.9482,228.81c0,-0.7957 -0.316,-1.5587 -0.8786,-2.1213c-0.5626,-0.5626 -1.3257,-0.8787 -2.1214,-0.8787" vector-effect="non-scaling-stroke" stroke-width="1px" stroke="#FF0000" fill="none"/>
   <path id="svg_42" d="m718.4482,535.81l48.5,0" vector-effect="non-scaling-stroke" stroke-width="1px" stroke="#FF0000" fill="none"/>
   <path id="svg_43" d="m869.9482,535.81l197,0" vector-effect="non-scaling-stroke" stroke-width="1px" stroke="#FF0000" fill="none"/>
   <path id="svg_44" d="m1169.9482,535.81l48.5,0" vector-effect="non-scaling-stroke" stroke-width="1px" stroke="#FF0000" fill="none"/>
   <path id="svg_45" d="m766.9482,562.81c0,0.7956 0.3161,1.5587 0.8787,2.1213c0.5626,0.5626 1.3257,0.8787 2.1213,0.8787l97,0" vector-effect="non-scaling-stroke" stroke-width="1px" stroke="#FF0000" fill="none"/>
   <path id="svg_46" d="m1066.9482,562.81c0,0.7956 0.3161,1.5587 0.8787,2.1213c0.5626,0.5626 1.3257,0.8787 2.1213,0.8787l97,0" vector-effect="non-scaling-stroke" stroke-width="1px" stroke="#FF0000" fill="none"/>
   <path id="svg_47" d="m766.9482,562.81l0,-27" vector-effect="non-scaling-stroke" stroke-width="1px" stroke="#FF0000" fill="none"/>
   <path id="svg_48" d="m866.9482,565.81c0.7957,0 1.5588,-0.3161 2.1214,-0.8787c0.5626,-0.5626 0.8786,-1.3257 0.8786,-2.1213l0,-27" vector-effect="non-scaling-stroke" stroke-width="1px" stroke="#FF0000" fill="none"/>
   <path id="svg_49" d="m1066.9482,562.81l0,-27" vector-effect="non-scaling-stroke" stroke-width="1px" stroke="#FF0000" fill="none"/>
   <path id="svg_50" d="m1166.9482,565.81c0.7957,0 1.5588,-0.3161 2.1214,-0.8787c0.5626,-0.5626 0.8786,-1.3257 0.8786,-2.1213l0,-27" vector-effect="non-scaling-stroke" stroke-width="1px" stroke="#FF0000" fill="none"/>
   <path id="svg_51" d="m730.9333,605.7629c0.7858,5.2458 3.6233,9.9646 7.8883,13.1183c3.4421,2.5452 7.6101,3.9188 11.891,3.9188" vector-effect="non-scaling-stroke" stroke-width="1px" stroke="#FF0000" fill="none"/>
   <path id="svg_52" d="m483.692,622.8c5.3043,0 10.3914,-2.1072 14.1421,-5.8579c3.0271,-3.027 5.003,-6.9455 5.6372,-11.1792" vector-effect="non-scaling-stroke" stroke-width="1px" stroke="#FF0000" fill="none"/>
   <path id="svg_53" d="m632.2023,622.8c0,-3.9783 -1.5804,-7.7936 -4.3934,-10.6066c-2.8131,-2.8131 -6.6284,-4.3934 -10.6066,-4.3934c-3.9783,0 -7.7936,1.5803 -10.6066,4.3934c-2.8131,2.813 -4.3934,6.6283 -4.3934,10.6066c0,3.9782 1.5803,7.7935 4.3934,10.6066c2.813,2.813 6.6283,4.3934 10.6066,4.3934c3.9782,0 7.7935,-1.5804 10.6066,-4.3934c2.813,-2.8131 4.3934,-6.6284 4.3934,-10.6066z" vector-effect="non-scaling-stroke" stroke-width="1px" stroke="#FF0000" fill="none"/>
   <path id="svg_54" d="m833.4482,315.81c0,-3.9783 -1.5803,-7.7936 -4.3934,-10.6066c-2.813,-2.8131 -6.6283,-4.3934 -10.6066,-4.3934c-3.9782,0 -7.7935,1.5803 -10.6066,4.3934c-2.813,2.813 -4.3934,6.6283 -4.3934,10.6066c0,3.9782 1.5804,7.7935 4.3934,10.6066c2.8131,2.813 6.6284,4.3934 10.6066,4.3934c3.9783,0 7.7936,-1.5804 10.6066,-4.3934c2.8131,-2.8131 4.3934,-6.6284 4.3934,-10.6066z" vector-effect="non-scaling-stroke" stroke-width="1px" stroke="#FF0000" fill="none"/>
   <path id="svg_55" d="m833.4482,475.81c0,-3.9783 -1.5803,-7.7936 -4.3934,-10.6066c-2.813,-2.8131 -6.6283,-4.3934 -10.6066,-4.3934c-3.9782,0 -7.7935,1.5803 -10.6066,4.3934c-2.813,2.813 -4.3934,6.6283 -4.3934,10.6066c0,3.9782 1.5804,7.7935 4.3934,10.6066c2.8131,2.813 6.6284,4.3934 10.6066,4.3934c3.9783,0 7.7936,-1.5804 10.6066,-4.3934c2.8131,-2.8131 4.3934,-6.6284 4.3934,-10.6066z" vector-effect="non-scaling-stroke" stroke-width="1px" stroke="#FF0000" fill="none"/>
   <path id="svg_56" d="m1133.4482,315.81c0,-3.9783 -1.5803,-7.7936 -4.3934,-10.6066c-2.813,-2.8131 -6.6283,-4.3934 -10.6066,-4.3934c-3.9782,0 -7.7935,1.5803 -10.6066,4.3934c-2.813,2.813 -4.3934,6.6283 -4.3934,10.6066c0,3.9782 1.5804,7.7935 4.3934,10.6066c2.8131,2.813 6.6284,4.3934 10.6066,4.3934c3.9783,0 7.7936,-1.5804 10.6066,-4.3934c2.8131,-2.8131 4.3934,-6.6284 4.3934,-10.6066z" vector-effect="non-scaling-stroke" stroke-width="1px" stroke="#FF0000" fill="none"/>
   <path id="svg_57" d="m1133.4482,475.81c0,-3.9783 -1.5803,-7.7936 -4.3934,-10.6066c-2.813,-2.8131 -6.6283,-4.3934 -10.6066,-4.3934c-3.9782,0 -7.7935,1.5803 -10.6066,4.3934c-2.813,2.813 -4.3934,6.6283 -4.3934,10.6066c0,3.9782 1.5804,7.7935 4.3934,10.6066c2.8131,2.813 6.6284,4.3934 10.6066,4.3934c3.9783,0 7.7936,-1.5804 10.6066,-4.3934c2.8131,-2.8131 4.3934,-6.6284 4.3934,-10.6066z" vector-effect="non-scaling-stroke" stroke-width="1px" stroke="#FF0000" fill="none"/>
   <path id="svg_58" d="m2.6377,657.5425c0,7.9565 3.1607,15.5871 8.7868,21.2132c5.6261,5.6261 13.2567,8.7868 21.2132,8.7868l280,0" vector-effect="non-scaling-stroke" stroke-width="1px" stroke="#FF0000" fill="none"/>
   <path id="svg_59" d="m127.6377,611.5425l90,0" vector-effect="non-scaling-stroke" stroke-width="1px" stroke="#FF0000" fill="none"/>
   <path id="svg_60" d="m282.6377,506.5425l0,-69" vector-effect="non-scaling-stroke" stroke-width="1px" stroke="#FF0000" fill="none"/>
   <path id="svg_61" d="m312.6377,506.5425l0,-69" vector-effect="non-scaling-stroke" stroke-width="1px" stroke="#FF0000" fill="none"/>
   <path id="svg_62" d="m312.6377,687.5425c7.9565,0 15.5872,-3.1607 21.2132,-8.7868c5.6261,-5.6261 8.7868,-13.2567 8.7868,-21.2132l0,-240c0,-7.9565 -3.1607,-15.5871 -8.7868,-21.2132c-5.626,-5.6261 -13.2567,-8.7868 -21.2132,-8.7868" vector-effect="non-scaling-stroke" stroke-width="1px" stroke="#FF0000" fill="none"/>
   <path id="svg_63" d="m217.6377,611.5425l0,-164" vector-effect="non-scaling-stroke" stroke-width="1px" stroke="#FF0000" fill="none"/>
   <path id="svg_64" d="m197.6377,427.5425l-50,0" vector-effect="non-scaling-stroke" stroke-width="1px" stroke="#FF0000" fill="none"/>
   <path id="svg_65" d="m312.6377,387.5425l-280,0c-7.9565,0 -15.5871,3.1607 -21.2132,8.7868c-5.6261,5.6261 -8.7868,13.2567 -8.7868,21.2132" vector-effect="non-scaling-stroke" stroke-width="1px" stroke="#FF0000" fill="none"/>
   <path id="svg_66" d="m62.6377,437.5425l0,69" vector-effect="non-scaling-stroke" stroke-width="1px" stroke="#FF0000" fill="none"/>
   <path id="svg_67" d="m32.6377,437.5425l0,69" vector-effect="non-scaling-stroke" stroke-width="1px" stroke="#FF0000" fill="none"/>
   <path id="svg_68" d="m2.6377,417.5425l0,240" vector-effect="non-scaling-stroke" stroke-width="1px" stroke="#FF0000" fill="none"/>
   <path id="svg_69" d="m127.6377,447.5425l0,164" vector-effect="non-scaling-stroke" stroke-width="1px" stroke="#FF0000" fill="none"/>
   <path id="svg_70" d="m32.6377,506.5425l30,0" vector-effect="non-scaling-stroke" stroke-width="1px" stroke="#FF0000" fill="none"/>
   <path id="svg_71" d="m282.6377,506.5425l30,0" vector-effect="non-scaling-stroke" stroke-width="1px" stroke="#FF0000" fill="none"/>
   <path id="svg_72" d="m32.6377,437.5425l30,0" vector-effect="non-scaling-stroke" stroke-width="1px" stroke="#FF0000" fill="none"/>
   <path id="svg_73" d="m282.6377,437.5425l30,0" vector-effect="non-scaling-stroke" stroke-width="1px" stroke="#FF0000" fill="none"/>
   <path id="svg_74" d="m282.6377,568.5425l0,69" vector-effect="non-scaling-stroke" stroke-width="1px" stroke="#FF0000" fill="none"/>
   <path id="svg_75" d="m312.6377,568.5425l0,69" vector-effect="non-scaling-stroke" stroke-width="1px" stroke="#FF0000" fill="none"/>
   <path id="svg_76" d="m62.6377,637.5425l0,-69" vector-effect="non-scaling-stroke" stroke-width="1px" stroke="#FF0000" fill="none"/>
   <path id="svg_77" d="m32.6377,637.5425l0,-69l30,0" vector-effect="non-scaling-stroke" stroke-width="1px" stroke="#FF0000" fill="none"/>
   <path id="svg_78" d="m282.6377,568.5425l30,0" vector-effect="non-scaling-stroke" stroke-width="1px" stroke="#FF0000" fill="none"/>
   <path id="svg_79" d="m32.6377,637.5425l30,0" vector-effect="non-scaling-stroke" stroke-width="1px" stroke="#FF0000" fill="none"/>
   <path id="svg_80" d="m282.6377,637.5425l30,0" vector-effect="non-scaling-stroke" stroke-width="1px" stroke="#FF0000" fill="none"/>
   <path id="svg_81" d="m0,280.6579c0,7.9565 3.1607,15.5872 8.7868,21.2133c5.6261,5.626 13.2567,8.7867 21.2132,8.7867l280,0" vector-effect="non-scaling-stroke" stroke-width="1px" stroke="#FF0000" fill="none"/>
   <path id="svg_82" d="m280,130.6579l0,-69" vector-effect="non-scaling-stroke" stroke-width="1px" stroke="#FF0000" fill="none"/>
   <path id="svg_83" d="m310,130.6579l0,-69" vector-effect="non-scaling-stroke" stroke-width="1px" stroke="#FF0000" fill="none"/>
   <path id="svg_84" d="m310,310.6579c7.9565,0 15.5871,-3.1607 21.2132,-8.7867c5.6261,-5.6261 8.7868,-13.2568 8.7868,-21.2133l0,-240c0,-7.9564 -3.1607,-15.5871 -8.7868,-21.2132c-5.6261,-5.626 -13.2567,-8.7868 -21.2132,-8.7868l-280,0c-7.9565,0 -15.5871,3.1608 -21.2132,8.7868c-5.6261,5.6261 -8.7868,13.2568 -8.7868,21.2132" vector-effect="non-scaling-stroke" stroke-width="1px" stroke="#FF0000" fill="none"/>
   <path id="svg_85" d="m60,61.6579l0,69" vector-effect="non-scaling-stroke" stroke-width="1px" stroke="#FF0000" fill="none"/>
   <path id="svg_86" d="m30,61.6579l0,69" vector-effect="non-scaling-stroke" stroke-width="1px" stroke="#FF0000" fill="none"/>
   <path id="svg_87" d="m0,40.6579l0,240" vector-effect="non-scaling-stroke" stroke-width="1px" stroke="#FF0000" fill="none"/>
   <path id="svg_88" d="m30,130.6579l30,0" vector-effect="non-scaling-stroke" stroke-width="1px" stroke="#FF0000" fill="none"/>
   <path id="svg_89" d="m280,130.6579l30,0" vector-effect="non-scaling-stroke" stroke-width="1px" stroke="#FF0000" fill="none"/>
   <path id="svg_90" d="m30,61.6579l30,0" vector-effect="non-scaling-stroke" stroke-width="1px" stroke="#FF0000" fill="none"/>
   <path id="svg_91" d="m280,61.6579l30,0" vector-effect="non-scaling-stroke" stroke-width="1px" stroke="#FF0000" fill="none"/>
   <path id="svg_92" d="m280,190.6579l0,69" vector-effect="non-scaling-stroke" stroke-width="1px" stroke="#FF0000" fill="none"/>
   <path id="svg_93" d="m310,190.6579l0,69" vector-effect="non-scaling-stroke" stroke-width="1px" stroke="#FF0000" fill="none"/>
   <path id="svg_94" d="m60,259.6579l0,-69" vector-effect="non-scaling-stroke" stroke-width="1px" stroke="#FF0000" fill="none"/>
   <path id="svg_95" d="m30,259.6579l0,-69l30,0" vector-effect="non-scaling-stroke" stroke-width="1px" stroke="#FF0000" fill="none"/>
   <path id="svg_96" d="m280,190.6579l30,0" vector-effect="non-scaling-stroke" stroke-width="1px" stroke="#FF0000" fill="none"/>
   <path id="svg_97" d="m30,259.6579l30,0" vector-effect="non-scaling-stroke" stroke-width="1px" stroke="#FF0000" fill="none"/>
   <path id="svg_98" d="m280,259.6579l30,0" vector-effect="non-scaling-stroke" stroke-width="1px" stroke="#FF0000" fill="none"/>
   <path id="svg_99" d="m1167.2999,174.9995l-100,0" vector-effect="non-scaling-stroke" stroke-width="1px" stroke="#FF0000" fill="none"/>
   <path id="svg_100" d="m867.2999,174.9995l-100,0" vector-effect="non-scaling-stroke" stroke-width="1px" stroke="#FF0000" fill="none"/>
   <path id="svg_101" d="m1214.2999,204.9995l-44,0" vector-effect="non-scaling-stroke" stroke-width="1px" stroke="#FF0000" fill="none"/>
   <path id="svg_102" d="m1167.2999,201.9995c0,0.7956 0.3161,1.5587 0.8787,2.1213c0.5626,0.5626 1.3257,0.8787 2.1213,0.8787" vector-effect="non-scaling-stroke" stroke-width="1px" stroke="#FF0000" fill="none"/>
   <path id="svg_103" d="m1064.2999,204.9995l-194,0" vector-effect="non-scaling-stroke" stroke-width="1px" stroke="#FF0000" fill="none"/>
   <path id="svg_104" d="m867.2999,201.9995c0,0.7956 0.3161,1.5587 0.8787,2.1213c0.5626,0.5626 1.3257,0.8787 2.1213,0.8787" vector-effect="non-scaling-stroke" stroke-width="1px" stroke="#FF0000" fill="none"/>
   <path id="svg_105" d="m764.2999,204.9995l-44,0" vector-effect="non-scaling-stroke" stroke-width="1px" stroke="#FF0000" fill="none"/>
   <path id="svg_106" d="m717.2999,201.9995c0,0.7956 0.3161,1.5587 0.8787,2.1213c0.5626,0.5626 1.3257,0.8787 2.1213,0.8787" vector-effect="non-scaling-stroke" stroke-width="1px" stroke="#FF0000" fill="none"/>
   <path id="svg_107" d="m1023.5916,82.4995c-8.6195,-14.9295 -22.8168,-25.8234 -39.4684,-30.2852c-16.6517,-4.4618 -34.3938,-2.126 -49.3233,6.4935c-9.8812,5.7049 -18.0867,13.9104 -23.7916,23.7917" vector-effect="non-scaling-stroke" stroke-width="1px" stroke="#FF0000" fill="none"/>
   <path id="svg_108" d="m1049.5724,67.4995c-12.5978,-21.82 -33.3476,-37.7419 -57.6846,-44.263c-24.3371,-6.5211 -50.2679,-3.1072 -72.0879,9.4905c-14.4418,8.338 -26.4344,20.3306 -34.7724,34.7725" vector-effect="non-scaling-stroke" stroke-width="1px" stroke="#FF0000" fill="none"/>
   <path id="svg_109" d="m1081.0309,97.9624c-4.5185,-30.1633 -20.8342,-57.2963 -45.358,-75.4299c-24.5238,-18.1336 -55.2467,-25.7825 -85.41,-21.264c-30.1633,4.5185 -57.2963,20.8342 -75.4299,45.358c-11.1777,15.1166 -18.4788,32.7431 -21.2641,51.3359" vector-effect="non-scaling-stroke" stroke-width="1px" stroke="#FF0000" fill="none"/>
   <path id="svg_110" d="m833.7896,114.9995c5.3044,0 10.3915,-2.1072 14.1422,-5.8579c3.027,-3.0271 5.0029,-6.9455 5.6371,-11.1792" vector-effect="non-scaling-stroke" stroke-width="1px" stroke="#FF0000" fill="none"/>
   <path id="svg_111" d="m1081.0309,97.9624c0.7859,5.2458 3.6234,9.9646 7.8884,13.1183c3.4421,2.5452 7.61,3.9188 11.8909,3.9188" vector-effect="non-scaling-stroke" stroke-width="1px" stroke="#FF0000" fill="none"/>
   <path id="svg_112" d="m885.0275,67.4995c-1.9891,3.4452 -2.5281,7.5396 -1.4985,11.3822c1.0297,3.8427 3.5436,7.119 6.9889,9.1081c3.4453,1.9892 7.5396,2.5282 11.3823,1.4985c3.8427,-1.0296 7.119,-3.5436 9.1081,-6.9888" vector-effect="non-scaling-stroke" stroke-width="1px" stroke="#FF0000" fill="none"/>
   <path id="svg_113" d="m1023.5916,82.4995c1.9891,3.4452 5.2654,5.9592 9.1081,6.9888c3.8427,1.0297 7.937,0.4907 11.3823,-1.4985c3.4452,-1.9891 5.9592,-5.2654 6.9889,-9.1081c1.0296,-3.8426 0.4906,-7.937 -1.4985,-11.3822" vector-effect="non-scaling-stroke" stroke-width="1px" stroke="#FF0000" fill="none"/>
   <path id="svg_114" d="m1217.2999,164.9995l0,37" vector-effect="non-scaling-stroke" stroke-width="1px" stroke="#FF0000" fill="none"/>
   <path id="svg_115" d="m1214.2999,204.9995c0.7957,0 1.5588,-0.3161 2.1214,-0.8787c0.5626,-0.5626 0.8786,-1.3257 0.8786,-2.1213" vector-effect="non-scaling-stroke" stroke-width="1px" stroke="#FF0000" fill="none"/>
   <path id="svg_116" d="m1217.2999,164.9995c0,-13.2609 -5.2678,-25.9786 -14.6446,-35.3554c-9.3768,-9.3768 -22.0945,-14.6446 -35.3554,-14.6446" vector-effect="non-scaling-stroke" stroke-width="1px" stroke="#FF0000" fill="none"/>
   <path id="svg_117" d="m833.7896,114.9995l-66.4897,0" vector-effect="non-scaling-stroke" stroke-width="1px" stroke="#FF0000" fill="none"/>
   <path id="svg_118" d="m1100.8102,114.9995l66.4897,0" vector-effect="non-scaling-stroke" stroke-width="1px" stroke="#FF0000" fill="none"/>
   <path id="svg_119" d="m767.2999,114.9995c-13.2608,0 -25.9785,5.2678 -35.3553,14.6446c-9.3768,9.3768 -14.6447,22.0945 -14.6447,35.3554l0,37" vector-effect="non-scaling-stroke" stroke-width="1px" stroke="#FF0000" fill="none"/>
   <path id="svg_120" d="m1067.2999,174.9995l0,27" vector-effect="non-scaling-stroke" stroke-width="1px" stroke="#FF0000" fill="none"/>
   <path id="svg_121" d="m1064.2999,204.9995c0.7957,0 1.5588,-0.3161 2.1214,-0.8787c0.5626,-0.5626 0.8786,-1.3257 0.8786,-2.1213" vector-effect="non-scaling-stroke" stroke-width="1px" stroke="#FF0000" fill="none"/>
   <path id="svg_122" d="m1167.2999,174.9995l0,27" vector-effect="non-scaling-stroke" stroke-width="1px" stroke="#FF0000" fill="none"/>
   <path id="svg_123" d="m867.2999,174.9995l0,27" vector-effect="non-scaling-stroke" stroke-width="1px" stroke="#FF0000" fill="none"/>
   <path id="svg_124" d="m767.2999,174.9995l0,27" vector-effect="non-scaling-stroke" stroke-width="1px" stroke="#FF0000" fill="none"/>
   <path id="svg_125" d="m764.2999,204.9995c0.7957,0 1.5588,-0.3161 2.1214,-0.8787c0.5626,-0.5626 0.8786,-1.3257 0.8786,-2.1213" vector-effect="non-scaling-stroke" stroke-width="1px" stroke="#FF0000" fill="none"/>
   <path id="svg_126" d="m982.2999,114.9995c0,-3.9783 -1.5803,-7.7936 -4.3934,-10.6066c-2.813,-2.8131 -6.6283,-4.3934 -10.6066,-4.3934c-3.9782,0 -7.7935,1.5803 -10.6066,4.3934c-2.813,2.813 -4.3934,6.6283 -4.3934,10.6066c0,3.9782 1.5804,7.7935 4.3934,10.6066c2.8131,2.813 6.6284,4.3934 10.6066,4.3934c3.9783,0 7.7936,-1.5804 10.6066,-4.3934c2.8131,-2.8131 4.3934,-6.6284 4.3934,-10.6066z" vector-effect="non-scaling-stroke" stroke-width="1px" stroke="#FF0000" fill="none"/>
   <path id="svg_127" d="m650.2161,24.4122l-60,0" vector-effect="non-scaling-stroke" stroke-width="1px" stroke="#FF0000" fill="none"/>
   <path id="svg_128" d="m650.2161,24.4122l0,48.5" vector-effect="non-scaling-stroke" stroke-width="1px" stroke="#FF0000" fill="none"/>
   <path id="svg_129" d="m650.2161,145.9122l0,57" vector-effect="non-scaling-stroke" stroke-width="1px" stroke="#FF0000" fill="none"/>
   <path id="svg_130" d="m650.2161,275.9122l0,48.5" vector-effect="non-scaling-stroke" stroke-width="1px" stroke="#FF0000" fill="none"/>
   <path id="svg_131" d="m680.2161,75.9122l0,67" vector-effect="non-scaling-stroke" stroke-width="1px" stroke="#FF0000" fill="none"/>
   <path id="svg_132" d="m677.2161,145.9122c0.7957,0 1.5587,-0.3161 2.1213,-0.8787c0.5626,-0.5626 0.8787,-1.3257 0.8787,-2.1213" vector-effect="non-scaling-stroke" stroke-width="1px" stroke="#FF0000" fill="none"/>
   <path id="svg_133" d="m680.2161,75.9122c0,-0.7957 -0.3161,-1.5587 -0.8787,-2.1213c-0.5626,-0.5626 -1.3256,-0.8787 -2.1213,-0.8787" vector-effect="non-scaling-stroke" stroke-width="1px" stroke="#FF0000" fill="none"/>
   <path id="svg_134" d="m680.2161,205.9122l0,67" vector-effect="non-scaling-stroke" stroke-width="1px" stroke="#FF0000" fill="none"/>
   <path id="svg_135" d="m677.2161,275.9122c0.7957,0 1.5587,-0.3161 2.1213,-0.8787c0.5626,-0.5626 0.8787,-1.3257 0.8787,-2.1213" vector-effect="non-scaling-stroke" stroke-width="1px" stroke="#FF0000" fill="none"/>
   <path id="svg_136" d="m680.2161,205.9122c0,-0.7957 -0.3161,-1.5587 -0.8787,-2.1213c-0.5626,-0.5626 -1.3256,-0.8787 -2.1213,-0.8787" vector-effect="non-scaling-stroke" stroke-width="1px" stroke="#FF0000" fill="none"/>
   <path id="svg_137" d="m680.2161,324.4122l0,104.1008" vector-effect="non-scaling-stroke" stroke-width="1px" stroke="#FF0000" fill="none"/>
   <path id="svg_138" d="m601.7161,64.4122l0,237" vector-effect="non-scaling-stroke" stroke-width="1px" stroke="#FF0000" fill="none"/>
   <path id="svg_139" d="m608.7161,64.4122l0,237" vector-effect="non-scaling-stroke" stroke-width="1px" stroke="#FF0000" fill="none"/>
   <path id="svg_140" d="m608.7161,64.4122l-7,0" vector-effect="non-scaling-stroke" stroke-width="1px" stroke="#FF0000" fill="none"/>
   <path id="svg_141" d="m608.7161,301.4122l-7,0" vector-effect="non-scaling-stroke" stroke-width="1px" stroke="#FF0000" fill="none"/>
   <path id="svg_142" d="m677.2161,72.9122l-27,0" vector-effect="non-scaling-stroke" stroke-width="1px" stroke="#FF0000" fill="none"/>
   <path id="svg_143" d="m677.2161,145.9122l-27,0" vector-effect="non-scaling-stroke" stroke-width="1px" stroke="#FF0000" fill="none"/>
   <path id="svg_144" d="m677.2161,202.9122l-27,0" vector-effect="non-scaling-stroke" stroke-width="1px" stroke="#FF0000" fill="none"/>
   <path id="svg_145" d="m677.2161,275.9122l-27,0" vector-effect="non-scaling-stroke" stroke-width="1px" stroke="#FF0000" fill="none"/>
   <path id="svg_146" d="m680.2161,324.4122l-30,0" vector-effect="non-scaling-stroke" stroke-width="1px" stroke="#FF0000" fill="none"/>
   <path id="svg_147" d="m590.2161,24.4122l0,48.5" vector-effect="non-scaling-stroke" stroke-width="1px" stroke="#FF0000" fill="none"/>
   <path id="svg_148" d="m590.2161,145.9122l0,57" vector-effect="non-scaling-stroke" stroke-width="1px" stroke="#FF0000" fill="none"/>
   <path id="svg_149" d="m590.2161,275.9122l0,48.5" vector-effect="non-scaling-stroke" stroke-width="1px" stroke="#FF0000" fill="none"/>
   <path id="svg_150" d="m563.2161,72.9122c-0.7956,0 -1.5587,0.3161 -2.1213,0.8787c-0.5626,0.5626 -0.8787,1.3256 -0.8787,2.1213l0,67c0,0.7956 0.3161,1.5587 0.8787,2.1213c0.5626,0.5626 1.3257,0.8787 2.1213,0.8787" vector-effect="non-scaling-stroke" stroke-width="1px" stroke="#FF0000" fill="none"/>
   <path id="svg_151" d="m563.2161,202.9122c-0.7956,0 -1.5587,0.3161 -2.1213,0.8787c-0.5626,0.5626 -0.8787,1.3256 -0.8787,2.1213l0,67c0,0.7956 0.3161,1.5587 0.8787,2.1213c0.5626,0.5626 1.3257,0.8787 2.1213,0.8787" vector-effect="non-scaling-stroke" stroke-width="1px" stroke="#FF0000" fill="none"/>
   <path id="svg_152" d="m560.2161,324.4122l0,104.1008" vector-effect="non-scaling-stroke" stroke-width="1px" stroke="#FF0000" fill="none"/>
   <path id="svg_153" d="m563.2161,72.9122l27,0" vector-effect="non-scaling-stroke" stroke-width="1px" stroke="#FF0000" fill="none"/>
   <path id="svg_154" d="m563.2161,145.9122l27,0" vector-effect="non-scaling-stroke" stroke-width="1px" stroke="#FF0000" fill="none"/>
   <path id="svg_155" d="m563.2161,202.9122l27,0" vector-effect="non-scaling-stroke" stroke-width="1px" stroke="#FF0000" fill="none"/>
   <path id="svg_156" d="m563.2161,275.9122l27,0" vector-effect="non-scaling-stroke" stroke-width="1px" stroke="#FF0000" fill="none"/>
   <path id="svg_157" d="m560.2161,324.4122l30,0" vector-effect="non-scaling-stroke" stroke-width="1px" stroke="#FF0000" fill="none"/>
   <path id="svg_158" d="m631.2161,442.523c0,-2.9174 -1.1589,-5.7152 -3.2218,-7.7781c-2.0629,-2.0629 -4.8608,-3.2219 -7.7782,-3.2219c-2.9174,0 -5.7153,1.159 -7.7782,3.2219c-2.0629,2.0629 -3.2218,4.8607 -3.2218,7.7781c0,2.9174 1.1589,5.7153 3.2218,7.7782c2.0629,2.0629 4.8608,3.2218 7.7782,3.2218c2.9174,0 5.7153,-1.1589 7.7782,-3.2218c2.0629,-2.0629 3.2218,-4.8608 3.2218,-7.7782z" vector-effect="non-scaling-stroke" stroke-width="1px" stroke="#FF0000" fill="none"/>
   <path id="svg_159" d="m631.2161,362.523c0,-2.9174 -1.1589,-5.7152 -3.2218,-7.7781c-2.0629,-2.0629 -4.8608,-3.2219 -7.7782,-3.2219c-2.9174,0 -5.7153,1.159 -7.7782,3.2219c-2.0629,2.0629 -3.2218,4.8607 -3.2218,7.7781c0,2.9174 1.1589,5.7153 3.2218,7.7782c2.0629,2.0629 4.8608,3.2218 7.7782,3.2218c2.9174,0 5.7153,-1.1589 7.7782,-3.2218c2.0629,-2.0629 3.2218,-4.8608 3.2218,-7.7782z" vector-effect="non-scaling-stroke" stroke-width="1px" stroke="#FF0000" fill="none"/>
   <path id="svg_160" d="m147.6377,427.5425c-5.3043,0 -10.3914,2.1071 -14.1421,5.8578c-3.7507,3.7508 -5.8579,8.8379 -5.8579,14.1422" vector-effect="non-scaling-stroke" stroke-width="1px" stroke="#FF0000" fill="none"/>
   <path id="svg_161" d="m217.6377,447.5425c0,-5.3043 -2.1071,-10.3914 -5.8578,-14.1422c-3.7508,-3.7507 -8.8378,-5.8578 -14.1422,-5.8578" vector-effect="non-scaling-stroke" stroke-width="1px" stroke="#FF0000" fill="none"/>
   <path id="svg_162" d="m560.2161,428.513c0,15.913 6.3214,31.1742 17.5736,42.4264c11.2522,11.2522 26.5134,17.5736 42.4264,17.5736c15.913,0 31.1742,-6.3214 42.4264,-17.5736c11.2522,-11.2522 17.5736,-26.5134 17.5736,-42.4264" vector-effect="non-scaling-stroke" stroke-width="1px" stroke="#FF0000" fill="none"/>
   <path id="svg_163" d="m415.5123,24.4122l60,0" vector-effect="non-scaling-stroke" stroke-width="1px" stroke="#FF0000" fill="none"/>
   <path id="svg_164" d="m415.5123,24.4122l0,48.5" vector-effect="non-scaling-stroke" stroke-width="1px" stroke="#FF0000" fill="none"/>
   <path id="svg_165" d="m415.5123,145.9122l0,57" vector-effect="non-scaling-stroke" stroke-width="1px" stroke="#FF0000" fill="none"/>
   <path id="svg_166" d="m415.5123,275.9122l0,48.5" vector-effect="non-scaling-stroke" stroke-width="1px" stroke="#FF0000" fill="none"/>
   <path id="svg_167" d="m388.5123,72.9122c-0.7956,0 -1.5587,0.3161 -2.1213,0.8787c-0.5626,0.5626 -0.8787,1.3256 -0.8787,2.1213l0,67c0,0.7956 0.3161,1.5587 0.8787,2.1213c0.5626,0.5626 1.3257,0.8787 2.1213,0.8787" vector-effect="non-scaling-stroke" stroke-width="1px" stroke="#FF0000" fill="none"/>
   <path id="svg_168" d="m388.5123,202.9122c-0.7956,0 -1.5587,0.3161 -2.1213,0.8787c-0.5626,0.5626 -0.8787,1.3256 -0.8787,2.1213l0,67c0,0.7956 0.3161,1.5587 0.8787,2.1213c0.5626,0.5626 1.3257,0.8787 2.1213,0.8787" vector-effect="non-scaling-stroke" stroke-width="1px" stroke="#FF0000" fill="none"/>
   <path id="svg_169" d="m385.5123,324.4122l0,104.1008c0,15.913 6.3214,31.1742 17.5736,42.4264c11.2522,11.2522 26.5134,17.5736 42.4264,17.5736c15.913,0 31.1742,-6.3214 42.4264,-17.5736c11.2522,-11.2522 17.5736,-26.5134 17.5736,-42.4264" vector-effect="non-scaling-stroke" stroke-width="1px" stroke="#FF0000" fill="none"/>
   <path id="svg_170" d="m464.0123,64.4122l0,237" vector-effect="non-scaling-stroke" stroke-width="1px" stroke="#FF0000" fill="none"/>
   <path id="svg_171" d="m457.0123,64.4122l0,237" vector-effect="non-scaling-stroke" stroke-width="1px" stroke="#FF0000" fill="none"/>
   <path id="svg_172" d="m457.0123,64.4122l7,0" vector-effect="non-scaling-stroke" stroke-width="1px" stroke="#FF0000" fill="none"/>
   <path id="svg_173" d="m457.0123,301.4122l7,0" vector-effect="non-scaling-stroke" stroke-width="1px" stroke="#FF0000" fill="none"/>
   <path id="svg_174" d="m388.5123,72.9122l27,0" vector-effect="non-scaling-stroke" stroke-width="1px" stroke="#FF0000" fill="none"/>
   <path id="svg_175" d="m388.5123,145.9122l27,0" vector-effect="non-scaling-stroke" stroke-width="1px" stroke="#FF0000" fill="none"/>
   <path id="svg_176" d="m388.5123,202.9122l27,0" vector-effect="non-scaling-stroke" stroke-width="1px" stroke="#FF0000" fill="none"/>
   <path id="svg_177" d="m388.5123,275.9122l27,0" vector-effect="non-scaling-stroke" stroke-width="1px" stroke="#FF0000" fill="none"/>
   <path id="svg_178" d="m385.5123,324.4122l30,0" vector-effect="non-scaling-stroke" stroke-width="1px" stroke="#FF0000" fill="none"/>
   <path id="svg_179" d="m475.5123,24.4122l0,48.5" vector-effect="non-scaling-stroke" stroke-width="1px" stroke="#FF0000" fill="none"/>
   <path id="svg_180" d="m475.5123,145.9122l0,57" vector-effect="non-scaling-stroke" stroke-width="1px" stroke="#FF0000" fill="none"/>
   <path id="svg_181" d="m475.5123,275.9122l0,48.5" vector-effect="non-scaling-stroke" stroke-width="1px" stroke="#FF0000" fill="none"/>
   <path id="svg_182" d="m505.5123,75.9122l0,67" vector-effect="non-scaling-stroke" stroke-width="1px" stroke="#FF0000" fill="none"/>
   <path id="svg_183" d="m502.5123,145.9122c0.7957,0 1.5587,-0.3161 2.1213,-0.8787c0.5627,-0.5626 0.8787,-1.3257 0.8787,-2.1213" vector-effect="non-scaling-stroke" stroke-width="1px" stroke="#FF0000" fill="none"/>
   <path id="svg_184" d="m505.5123,75.9122c0,-0.7957 -0.316,-1.5587 -0.8787,-2.1213c-0.5626,-0.5626 -1.3256,-0.8787 -2.1213,-0.8787" vector-effect="non-scaling-stroke" stroke-width="1px" stroke="#FF0000" fill="none"/>
   <path id="svg_185" d="m505.5123,205.9122l0,67" vector-effect="non-scaling-stroke" stroke-width="1px" stroke="#FF0000" fill="none"/>
   <path id="svg_186" d="m502.5123,275.9122c0.7957,0 1.5587,-0.3161 2.1213,-0.8787c0.5627,-0.5626 0.8787,-1.3257 0.8787,-2.1213" vector-effect="non-scaling-stroke" stroke-width="1px" stroke="#FF0000" fill="none"/>
   <path id="svg_187" d="m505.5123,205.9122c0,-0.7957 -0.316,-1.5587 -0.8787,-2.1213c-0.5626,-0.5626 -1.3256,-0.8787 -2.1213,-0.8787" vector-effect="non-scaling-stroke" stroke-width="1px" stroke="#FF0000" fill="none"/>
   <path id="svg_188" d="m505.5123,324.4122l0,104.1008" vector-effect="non-scaling-stroke" stroke-width="1px" stroke="#FF0000" fill="none"/>
   <path id="svg_189" d="m502.5123,72.9122l-27,0" vector-effect="non-scaling-stroke" stroke-width="1px" stroke="#FF0000" fill="none"/>
   <path id="svg_190" d="m502.5123,145.9122l-27,0" vector-effect="non-scaling-stroke" stroke-width="1px" stroke="#FF0000" fill="none"/>
   <path id="svg_191" d="m502.5123,202.9122l-27,0" vector-effect="non-scaling-stroke" stroke-width="1px" stroke="#FF0000" fill="none"/>
   <path id="svg_192" d="m502.5123,275.9122l-27,0" vector-effect="non-scaling-stroke" stroke-width="1px" stroke="#FF0000" fill="none"/>
   <path id="svg_193" d="m505.5123,324.4122l-30,0" vector-effect="non-scaling-stroke" stroke-width="1px" stroke="#FF0000" fill="none"/>
   <path id="svg_194" d="m456.5123,442.523c0,-2.9174 -1.1589,-5.7152 -3.2218,-7.7781c-2.0629,-2.0629 -4.8608,-3.2219 -7.7782,-3.2219c-2.9174,0 -5.7152,1.159 -7.7782,3.2219c-2.0629,2.0629 -3.2218,4.8607 -3.2218,7.7781c0,2.9174 1.1589,5.7153 3.2218,7.7782c2.063,2.0629 4.8608,3.2218 7.7782,3.2218c2.9174,0 5.7153,-1.1589 7.7782,-3.2218c2.0629,-2.0629 3.2218,-4.8608 3.2218,-7.7782z" vector-effect="non-scaling-stroke" stroke-width="1px" stroke="#FF0000" fill="none"/>
   <path id="svg_195" d="m456.5123,362.523c0,-2.9174 -1.1589,-5.7152 -3.2218,-7.7781c-2.0629,-2.0629 -4.8608,-3.2219 -7.7782,-3.2219c-2.9174,0 -5.7152,1.159 -7.7782,3.2219c-2.0629,2.0629 -3.2218,4.8607 -3.2218,7.7781c0,2.9174 1.1589,5.7153 3.2218,7.7782c2.063,2.0629 4.8608,3.2218 7.7782,3.2218c2.9174,0 5.7153,-1.1589 7.7782,-3.2218c2.0629,-2.0629 3.2218,-4.8608 3.2218,-7.7782z" vector-effect="non-scaling-stroke" stroke-width="1px" stroke="#FF0000" fill="none"/>
  </symbol>
  <symbol data-stroke-width="5.55972" data-origin-symbol="svg_1" id="svg_1_image" overflow="visible">
   <image filter="url(#filter#FF0000)" href="blob:file:///f8485d0c-327e-4beb-8b7a-7e897f30d11b" height="712.80096" width="1218.44824" y="-0.00098" x="0"/>
  </symbol>
 </defs>
 <g data-color="#FF0000" class="layer">
  <title>0</title>
  <filter color-interpolation-filters="sRGB" primitiveUnits="userSpaceOnUse" filterUnits="objectBoundingBox" id="filter#FF0000">
   <feColorMatrix values="1 0 0 0 1, 0 1 0 0 0, 0 0 1 0 0, 0 0 0 1 0" type="matrix"/>
  </filter>
  <use data-xform="x=-9.5367431640625e-7 y=-0.000980377197265625 width=1218.4482421875 height=712.8009643554688 " data-ratiofixed="true" data-dxf="true" xlink:href="#svg_1" id="svg_196"/>
 </g>
</svg>